<mxfile host="app.diagrams.net" modified="2024-07-08T02:03:18.481Z" agent="Mozilla/5.0 (Windows NT 10.0; Win64; x64) AppleWebKit/537.36 (KHTML, like Gecko) Chrome/126.0.0.0 Safari/537.36 Edg/126.0.0.0" version="24.6.4" etag="_DzVwTeFuc30WBaLspWE" type="github">
  <diagram name="페이지-1" id="2eH_lsdNprnWthk2rXRz">
    <mxGraphModel>
      <root>
        <mxCell id="0" />
        <mxCell id="1" parent="0" />
      </root>
    </mxGraphModel>
  </diagram>
</mxfile>
